<svg width="570" height="627" viewBox="0 0 570 627" fill="none" xmlns="http://www.w3.org/2000/svg">
<path fill-rule="evenodd" clip-rule="evenodd" d="M292.496 1.25177C354.812 10.4388 382.095 84.4378 431.246 123.832C473.746 157.895 539.48 167.066 561.52 216.873C583.54 266.635 551.396 321.988 542.702 375.706C534.189 428.3 541.24 485.2 510.993 529.061C479.395 574.882 428.255 604.546 374.624 619.435C321.444 634.2 266.982 621.196 212.577 611.91C151.119 601.419 78.5272 607.598 36.3393 561.693C-5.90265 515.728 1.76477 444.07 0.962725 381.648C0.246479 325.904 10.8824 272.359 31.9585 220.749C53.7855 167.299 80.548 115.838 124.702 78.6392C172.78 38.134 230.301 -7.91731 292.496 1.25177Z" fill="#C4C4C4"/>
</svg>
