<svg width="607" height="721" viewBox="0 0 607 721" fill="none" xmlns="http://www.w3.org/2000/svg">
<path fill-rule="evenodd" clip-rule="evenodd" d="M258.343 0.0786866C331.108 2.91052 361.9 95.2506 421.082 137.68C480.868 180.541 595.604 175.996 605.414 248.901C615.897 326.808 489.278 354.237 460.042 427.208C434.319 491.409 492.161 572.536 452.927 629.494C411.328 689.885 331.563 724.062 258.343 720.021C186.283 716.045 125.086 664.185 78.7603 608.846C39.3712 561.793 36.1666 498.123 22.5051 438.3C10.2874 384.799 -7.51299 332.617 3.3973 278.835C15.2844 220.237 45.7801 168.766 86.1327 124.645C135.146 71.0541 185.774 -2.74549 258.343 0.0786866Z" fill="#738EB3" fill-opacity="0.5"/>
</svg>
