<svg width="254" height="200" viewBox="0 0 254 200" fill="none" xmlns="http://www.w3.org/2000/svg">
<path opacity="0.18" d="M16.0613 171.986C-5.02371 155.634 0.208599 116.584 1.58111 104.006C2.34228 97.0818 3.93055 90.1574 7.20299 84.2277C16.6307 67.1317 36.7089 62.8128 51.5487 51.6145C68.0608 39.2224 78.5733 17.8461 96.344 7.89909C106.125 2.42504 117.267 0.942621 128.181 0.288046C147.996 -0.905592 169.68 1.10306 184.406 16.0813C195.057 26.9139 200.367 42.8996 209.83 55.0478C218.173 65.7648 229.441 73.1128 238.174 83.432C251.144 98.7439 257.772 122.174 250.76 141.798C244.245 159.979 234.272 171.909 229.099 173.706C212.498 179.481 176.213 180.181 158.85 181.503C140.24 182.915 123.488 179.821 104.843 179.886C76.074 179.988 36.8227 181.689 16.0853 171.96" fill="#53C3A1"/>
<path d="M177.31 113.972C177.31 113.972 180.007 121.243 165.844 125.748C151.682 130.253 143.908 148.074 144.214 163.066V172.73C144.214 172.73 188.254 190.057 225.599 174.065C225.599 174.065 229.195 133.578 203.663 124.08C203.663 124.08 198.371 122.411 199.923 115.737C199.923 115.737 212.066 108.402 209.884 89.0728C207.703 69.7436 200.768 63.7433 193.6 63.3069C164.652 61.5422 164.55 102.196 177.31 113.972V113.972Z" fill="#F7AF87"/>
<path d="M229.099 173.731C229.099 173.731 229.639 145.495 225.258 135.907C221.56 127.802 212.018 125.723 203.963 123.072C203.515 122.894 203.036 122.824 202.56 122.867C201.972 123.029 201.429 123.341 200.978 123.778C196.599 127.307 191.161 128.988 185.699 128.502C180.237 128.015 175.133 125.395 171.358 121.141C161.697 124.292 154.139 124.227 149.069 133.584C143.998 142.941 141.487 161.211 142.44 171.979C142.416 171.986 185.946 190.872 229.099 173.731Z" fill="#53C3A1"/>
<path d="M152.647 133.847C152.647 133.847 159.959 125.819 162.902 125.78C165.844 125.742 183.879 180.515 183.879 180.515L156.962 179.141L152.647 133.847Z" fill="url(#paint0_linear_117_65)"/>
<path d="M168.416 66.2974C170.1 60.3036 174.283 54.7461 179.983 53.3535C181.685 52.9364 183.441 52.9043 185.155 52.5514C186.198 52.3332 187.217 52.0059 188.248 51.7299C192.474 50.5363 196.923 50.5807 201.128 51.8583C205.349 53.1688 208.968 56.1064 211.287 60.1046C213.397 63.9551 213.99 68.55 213.684 72.9908C213.379 77.4316 210.975 85.2994 209.842 89.5798C207.829 86.7561 209.171 78.7472 206.354 76.8605C204.352 75.5193 201.775 76.1289 199.444 76.5525C194.037 77.5473 188.496 77.3288 183.171 75.9107C180.648 75.2305 178.059 74.2807 175.512 74.8326C173.3 75.3075 172.515 77.1236 171.316 79.1387C170.465 80.5313 169.956 87.4813 169.231 88.8354C167.54 88.1936 167.211 77.1814 167.229 75.5963C167.215 72.4524 167.615 69.3222 168.416 66.2974V66.2974Z" fill="#404040"/>
<path d="M211.413 87.7317C211.681 87.4584 211.998 87.2464 212.346 87.1085C212.693 86.9706 213.063 86.9097 213.433 86.9295C213.715 86.995 213.98 87.1276 214.208 87.3176C214.437 87.5075 214.622 87.7499 214.751 88.0269C215.006 88.5829 215.145 89.1916 215.159 89.8109C215.296 92.2861 214.541 94.7234 213.049 96.6198C212.228 97.6466 211.005 98.545 209.777 98.2305C209.53 98.1838 209.304 98.056 209.129 97.8648C208.995 97.6851 208.897 97.4774 208.842 97.2551C208.363 95.3136 208.331 93.2771 208.746 91.319C208.883 90.4655 208.961 89.6312 209.633 89.0793C210.19 88.6173 210.837 88.1937 211.413 87.7317V87.7317Z" fill="#F7AF87"/>
<path d="M88.8521 117.104C89.7991 116.937 90.83 116.713 91.4473 115.93C91.8983 115.234 92.1541 114.414 92.1845 113.568C93.3412 104.256 96.5597 76.822 87.9891 61.0994C86.7904 58.8533 83.6977 58.3335 82.0316 56.6072C78.1238 52.5001 73.1193 47.5202 66.2028 47.5715C49.6248 47.6934 42.079 56.4789 35.2884 72.6764C31.1649 82.5014 29.8943 112.259 33.3106 115.14C36.9067 118.176 46.3764 117.932 50.8355 118.407C63.5067 119.745 76.2868 119.307 88.8521 117.104V117.104Z" fill="#404040"/>
<path d="M81.8098 71.3929C82.1253 70.93 82.5353 70.5503 83.0085 70.2827C84.405 69.5511 86.0951 70.411 87.2039 71.5661C88.6029 73.146 89.5763 75.1019 90.0209 77.2263C90.4465 79.3343 90.6476 81.4872 90.6202 83.6437C90.6562 86.292 90.5803 88.9402 90.3925 91.5885C90.2009 95.4839 89.4405 99.3231 88.1389 102.967C86.7424 106.567 84.4589 109.859 81.3303 111.842C79.0048 102.934 78.7891 93.5779 78.5913 84.3368C78.5553 82.8672 78.5254 81.404 78.5553 79.9409C78.5553 79.3633 78.4055 78.2467 78.6632 77.7333C78.9209 77.2199 79.3824 77.3226 79.802 76.9824C80.4672 76.4498 80.3534 75.4615 80.5032 74.6529C80.7349 73.485 81.1789 72.3773 81.8098 71.3929V71.3929Z" fill="url(#paint1_linear_117_65)"/>
<path d="M37.9076 90.3756C37.2974 90.4654 36.7159 90.7096 36.2114 91.0879C35.7815 91.5007 35.4471 92.0148 35.2345 92.5896C34.2885 94.8158 33.8496 97.2506 33.9538 99.6939C34.058 102.137 34.7023 104.519 35.8338 106.644C35.8338 106.644 38.6568 103.403 38.9025 103.069C39.8747 101.717 40.7369 100.279 41.4797 98.7695C42.1569 97.3898 45.7111 90.9917 43.919 90.2023C42.7863 89.7082 39.2741 90.0675 37.9076 90.3756V90.3756Z" fill="url(#paint2_linear_117_65)"/>
<path d="M41.9652 113.972C40.6526 110.719 40.9163 107.003 41.3658 103.493C41.7674 100.438 42.3488 97.2935 44.0209 94.7843C45.5779 92.5822 47.7189 90.9339 50.1643 90.0547C52.5953 89.191 55.1269 88.6942 57.6861 88.5787C61.3625 88.3091 65.0537 88.3734 68.7201 88.7712C71.3005 88.9587 73.8331 89.6096 76.2119 90.6964C79.4486 92.3915 82.0277 95.2483 83.5 98.7695C84.9511 102.288 85.4436 106.175 84.9204 109.981C84.8024 111.619 84.2538 113.187 83.3381 114.505C82.2655 115.682 80.9117 116.521 79.4244 116.931C74.0303 118.779 68.3125 118.638 62.7266 118.4C58.0936 118.208 53.4127 118.49 48.8517 117.528C46.1786 116.969 43.1878 117.014 41.9652 113.972V113.972Z" fill="url(#paint3_linear_117_65)"/>
<path d="M99.2508 174.059C61.8815 190.057 17.8654 172.724 17.8654 172.724V163.098C17.5298 148.068 25.3213 130.24 39.4958 125.748C53.6704 121.256 52.6815 116 52.6815 116C39.9274 104.231 38.2972 61.5486 67.2636 63.3198C74.4558 63.7562 81.3783 69.7372 83.5479 89.0921C85.7175 108.447 71.561 116.899 71.561 116.899C71.3702 117.849 71.4382 118.838 71.7569 119.748C72.0756 120.658 72.6317 121.451 73.359 122.033C74.5323 123.001 75.8786 123.702 77.3147 124.093C102.817 133.571 99.2508 174.059 99.2508 174.059Z" fill="#F7AF87"/>
<path d="M51.5188 91.5435C57.1646 91.5435 62.8704 90.6772 68.0428 88.2642C73.2152 85.8513 77.8241 81.7762 80.4613 76.4434C81.3511 74.77 81.866 72.8984 81.9656 70.9757C82.0316 67.3435 79.8799 63.9487 77.021 61.9914C74.1621 60.0341 70.7039 59.3282 67.3176 59.1741C60.0235 58.8468 52.4897 61.048 46.9398 66.1242C44.64 68.2149 42.7628 70.7861 41.4231 73.6804C40.0833 76.5748 39.3093 79.7313 39.1482 82.957C38.8785 90.0033 46.1366 91.5371 51.5188 91.5435Z" fill="#404040"/>
<path d="M102.721 173.731C102.721 173.731 99.8741 150.686 95.4929 141.079C91.7949 132.974 85.6336 125.723 77.5784 123.079C77.1309 122.9 76.6519 122.829 76.1759 122.873C75.5886 123.034 75.0472 123.347 74.5996 123.785C70.2205 127.313 64.7823 128.995 59.3204 128.508C53.8586 128.022 48.7545 125.402 44.9799 121.147C35.3259 124.349 27.1613 131.344 22.1267 140.727C17.0563 150.077 15.1324 161.217 16.0614 171.986C16.0614 171.986 59.562 190.872 102.721 173.731Z" fill="#53C3A1"/>
<path d="M71.6509 179.828C71.6509 179.828 55.0669 181.798 51.6986 179.995C51.6986 179.995 60.0894 131.704 80.0597 124.754C80.0597 124.754 88.7143 126.294 95.4929 141.08C97.4648 145.373 71.6509 179.828 71.6509 179.828V179.828Z" fill="url(#paint4_linear_117_65)"/>
<path d="M71.6988 189.948V160.71C71.6988 160.71 78.2376 134.399 100.959 131.383C123.68 128.367 148.265 132.384 148.265 132.384C148.265 132.384 172.239 135.715 176.585 167.372V192.367C176.585 192.367 116.206 211.055 71.6988 189.948Z" fill="#53C3A1"/>
<path d="M101.786 97.4348C100.815 96.7931 99.6224 96.3503 98.5556 96.7931C98.1138 96.9786 97.718 97.2706 97.3988 97.6466C95.7146 99.5718 95.8105 102.569 96.344 105.136C96.6408 106.576 97.0416 107.99 97.5427 109.365C97.7515 110.002 98.0529 110.6 98.4357 111.136C99.6344 112.657 101.732 112.862 103.578 112.631C104.669 112.496 105.886 112.143 106.383 111.091C106.554 110.687 106.652 110.251 106.671 109.808C107.168 104.616 106.029 100.181 101.786 97.4348V97.4348Z" fill="#F7AF87"/>
<path d="M147.492 99.5397C148.853 98.5257 150.621 97.7428 152.149 98.4487C152.747 98.7724 153.256 99.2577 153.625 99.8565C153.994 100.455 154.21 101.147 154.253 101.863C154.322 103.295 154.089 104.725 153.57 106.047C153.043 107.745 152.22 109.319 151.142 110.687C150.049 112.057 148.502 112.922 146.827 113.1C145.994 113.169 145.159 112.983 144.421 112.562C143.683 112.142 143.073 111.504 142.662 110.725C142.255 109.684 142.066 108.56 142.11 107.433C142.035 106.567 142.127 105.693 142.38 104.866C143.039 103.101 146.096 100.579 147.492 99.5397V99.5397Z" fill="#F7AF87"/>
<path d="M110.135 134.213C109.603 135.192 109.291 136.291 109.224 137.422C109.263 138.087 109.414 138.739 109.667 139.347C111.861 145.123 116.404 148.036 120.785 149.384C122.1 149.822 123.466 150.062 124.843 150.096C128.978 150.096 133.066 147.054 135.553 142.145C135.699 141.893 135.791 141.611 135.823 141.317C135.809 140.935 135.708 140.563 135.529 140.232C133.983 136.664 134.265 132.063 134.672 127.873C134.734 127.526 134.714 127.169 134.612 126.833C134.551 126.706 134.466 126.593 134.363 126.501C134.26 126.41 134.141 126.341 134.013 126.3C131.334 125.094 128.457 125.845 125.622 125.729C121.726 125.575 117.95 123.656 114.049 123.65C112.311 123.65 112.179 124.343 111.933 126.673C111.717 129.273 111.11 131.82 110.135 134.213Z" fill="#F7AF87"/>
<path d="M110.183 122.206C110.183 122.206 112.43 131.64 117.879 137.819C123.327 143.999 136.225 142.819 134.702 137.3C133.42 132.673 135.823 122.206 135.823 122.206H110.183Z" fill="url(#paint5_linear_117_65)"/>
<path d="M168.38 87.3786C167.78 86.7369 167.079 86.0952 166.234 86.0374C165.904 86.0381 165.578 86.1181 165.28 86.2713C164.982 86.4246 164.721 86.6472 164.514 86.923C164.101 87.4828 163.827 88.145 163.717 88.8482C163.433 90.5524 163.559 92.3058 164.082 93.9437C164.682 95.9459 165.754 97.9738 167.576 98.7375C167.89 98.8994 168.237 98.9721 168.585 98.9485C168.932 98.9249 169.268 98.8058 169.56 98.6027C169.952 98.1819 170.196 97.6285 170.25 97.0368C170.963 93.257 171.077 90.1895 168.38 87.3786V87.3786Z" fill="#F7AF87"/>
<path d="M146.084 104.417C144.364 119.889 136.332 132.653 124.298 132.653C112.263 132.653 102.511 120.018 102.511 104.417C102.511 88.8162 110.249 71.2261 122.29 71.2261C134.331 71.2261 149.602 72.7919 146.084 104.417Z" fill="#F7AF87"/>
<path d="M99.2268 99.3151C98.4277 93.1929 97.9023 87.0364 97.6506 80.8458C97.5427 78.1184 97.5846 75.0701 99.2928 73.0615C99.7429 72.6217 100.145 72.1287 100.491 71.5919C100.775 70.9033 100.932 70.1624 100.953 69.41C101.6 63.5637 105.55 58.6801 110.081 55.3494C115.046 51.7091 120.803 49.499 126.797 48.932C128.724 48.7076 130.672 48.7963 132.575 49.1951C134.487 49.6949 136.324 50.4836 138.029 51.5375C140.738 53.1098 143.345 55.0093 145.269 57.5827C147.193 60.1561 148.373 63.4995 147.966 66.766C149.286 67.3709 150.473 68.2679 151.447 69.3982C152.421 70.5285 153.161 71.8666 153.618 73.3246C154.501 76.3495 154.783 79.539 154.445 82.6876C153.845 90.1831 151.184 97.8776 145.598 102.434C145.688 97.1936 144.603 92.0066 142.434 87.3081C141.604 85.7068 140.85 84.0618 140.174 82.3795C139.538 80.5785 139.229 78.6639 139.263 76.7386C136.926 78.0735 135.553 80.8073 133.348 82.386C131.937 83.3011 130.374 83.9136 128.745 84.1893C123.502 85.2978 118.092 85.0958 112.934 83.5989C110.896 83.0085 108.301 82.3924 107.018 84.1893C106.221 85.2995 106.359 86.8396 106.251 88.2386C106.074 89.7632 105.73 91.2601 105.226 92.6987L102.05 102.967C100.971 101.985 99.4306 100.823 99.2268 99.3151V99.3151Z" fill="#404040"/>
<path d="M73.4549 122.309C63.3798 129.22 56.3615 117.502 56.0378 116.918C58.404 118.336 61.0701 119.08 63.7814 119.08C66.4928 119.08 69.1588 118.336 71.525 116.918C71.3342 117.868 71.4022 118.857 71.7209 119.767C72.0397 120.677 72.5957 121.47 73.323 122.052L73.4549 122.309Z" fill="url(#paint6_linear_117_65)"/>
<path d="M168.29 94.3287C167.87 93.7447 167.427 93.0452 167.63 92.3264C167.834 91.6077 168.541 91.2355 168.547 90.5424C168.534 90.3455 168.481 90.1539 168.393 89.9802C168.306 89.8066 168.184 89.6548 168.038 89.5349C167.693 89.1951 167.252 88.9894 166.785 88.9509C166.625 88.938 166.464 88.976 166.324 89.06C166.165 89.1829 166.046 89.3555 165.982 89.5541C165.281 91.2355 165.515 93.212 166.132 94.9319C166.236 95.2586 166.396 95.5613 166.605 95.8239C166.901 96.113 167.26 96.3182 167.648 96.4207C168.248 96.6261 168.955 96.6325 169.093 95.8303C169.195 95.2528 168.565 94.7394 168.29 94.3287V94.3287Z" fill="url(#paint7_linear_117_65)"/>
<path d="M210.969 94.457C211.389 93.8731 211.832 93.1736 211.628 92.4548C211.425 91.7361 210.717 91.3638 210.705 90.6708C210.721 90.4735 210.774 90.2819 210.863 90.1083C210.952 89.9348 211.074 89.7831 211.221 89.6632C211.564 89.3214 212.006 89.1153 212.474 89.0793C212.632 89.0661 212.791 89.1041 212.929 89.1883C213.09 89.3109 213.211 89.4834 213.277 89.6825C213.972 91.3639 213.738 93.3404 213.121 95.0603C213.028 95.4369 212.837 95.7772 212.569 96.041C212.301 96.3049 211.969 96.4812 211.61 96.5491C211.011 96.7545 210.304 96.7609 210.16 95.9587C210.064 95.394 210.67 94.8677 210.969 94.457Z" fill="url(#paint8_linear_117_65)"/>
<path d="M146.12 106.644C146.783 106.725 147.452 106.553 148.008 106.156C148.298 106.009 148.551 105.789 148.745 105.514C149.236 104.686 148.697 103.538 149.051 102.639C149.225 102.312 149.468 102.033 149.76 101.824C150.052 101.614 150.386 101.481 150.735 101.433C150.98 101.346 151.245 101.346 151.49 101.433C151.673 101.564 151.82 101.745 151.917 101.957C152.014 102.169 152.057 102.404 152.041 102.639C152.163 104.673 151.554 106.68 150.339 108.248C149.731 109.019 148.983 109.65 148.14 110.103C147.297 110.555 146.378 110.819 145.437 110.879C145.341 110.894 145.243 110.878 145.155 110.834C145.059 110.765 144.99 110.66 144.963 110.539C144.773 109.959 144.728 109.335 144.833 108.73C144.938 108.126 145.19 107.561 145.562 107.093" fill="url(#paint9_linear_117_65)"/>
<path d="M99.1369 103.993C99.4126 104.487 99.97 104.68 100.432 104.969C100.893 105.266 101.277 105.684 101.548 106.184C101.818 106.683 101.966 107.248 101.978 107.825C102.013 108.205 101.933 108.588 101.749 108.916C101.566 109.244 101.289 109.5 100.959 109.647C100.294 109.846 99.6284 109.339 99.1609 108.794C98.5571 108.073 98.0918 107.233 97.7915 106.32C97.4912 105.407 97.3618 104.44 97.4108 103.474C97.4467 102.832 97.7045 101.215 98.6634 101.548C99.4306 101.837 98.7653 103.326 99.1369 103.993V103.993Z" fill="url(#paint10_linear_117_65)"/>
<path d="M101.301 84.3753C100.659 85.3269 100.279 86.4517 100.204 87.6225C100.083 89.3138 100.139 91.0143 100.372 92.6922L101.277 101.414C102.403 97.2422 105.064 93.6035 105.67 89.3103C105.862 87.9434 105.826 86.5187 106.233 85.1967C106.413 84.6192 107.48 83.1945 107.084 82.6298C106.689 82.065 104.417 82.5142 103.824 82.6939C102.84 82.9609 101.959 83.5485 101.301 84.3753Z" fill="url(#paint11_linear_117_65)"/>
<path d="M146.054 69.8142C146.145 69.7589 146.25 69.7364 146.354 69.7501C146.485 69.7822 146.563 69.9169 146.635 70.0453C148.014 72.5673 149.416 75.1407 150.022 77.9964C150.336 79.5752 150.463 81.1902 150.399 82.8031C150.245 88.2275 148.678 93.4977 145.874 98.0187C145.311 96.0229 145.371 93.8795 144.921 91.8452C144.322 89.0857 142.817 86.6664 141.505 84.2021C140.306 81.956 138.214 78.1633 139.737 75.7118C141.249 73.1182 143.448 71.0651 146.054 69.8142V69.8142Z" fill="url(#paint12_linear_117_65)"/>
<path d="M177.31 113.972C177.31 113.972 180.72 118.426 188.14 118.664C196.147 118.92 199.923 115.75 199.923 115.75C199.923 115.75 196.393 124.093 187.577 125.954C181.997 127.147 175.722 124.58 174.601 121.462C174.601 121.494 178.257 117.855 177.31 113.972V113.972Z" fill="url(#paint13_linear_117_65)"/>
<path d="M110.345 131.787C110.345 131.787 112.508 142.851 120.198 145.424C127.888 147.997 134.379 139.764 134.618 134.361C134.858 128.957 136.063 130.51 136.063 130.51L137.987 131.794V152.124L123.327 149.801L108.906 154.177C108.906 154.177 105.058 135.644 107.222 130.497" fill="#53C3A1"/>
<defs>
<linearGradient id="paint0_linear_117_65" x1="129.26" y1="135.541" x2="263.789" y2="200.162" gradientUnits="userSpaceOnUse">
<stop stop-opacity="0"/>
<stop offset="0.99"/>
</linearGradient>
<linearGradient id="paint1_linear_117_65" x1="76.8052" y1="96.1833" x2="98.2403" y2="78.7237" gradientUnits="userSpaceOnUse">
<stop stop-opacity="0"/>
<stop offset="0.6" stop-opacity="0.36"/>
<stop offset="0.99"/>
</linearGradient>
<linearGradient id="paint2_linear_117_65" x1="38.3751" y1="105.835" x2="40.3729" y2="81.579" gradientUnits="userSpaceOnUse">
<stop stop-opacity="0"/>
<stop offset="0.99"/>
</linearGradient>
<linearGradient id="paint3_linear_117_65" x1="63.4218" y1="90.5424" x2="62.5973" y2="125.284" gradientUnits="userSpaceOnUse">
<stop stop-opacity="0"/>
<stop offset="0.99"/>
</linearGradient>
<linearGradient id="paint4_linear_117_65" x1="49.7447" y1="143.268" x2="130.421" y2="182.02" gradientUnits="userSpaceOnUse">
<stop stop-opacity="0"/>
<stop offset="0.99"/>
</linearGradient>
<linearGradient id="paint5_linear_117_65" x1="114.63" y1="142.53" x2="141.45" y2="107.005" gradientUnits="userSpaceOnUse">
<stop stop-opacity="0"/>
<stop offset="0.99"/>
</linearGradient>
<linearGradient id="paint6_linear_117_65" x1="62.7925" y1="129.342" x2="68.2678" y2="105.566" gradientUnits="userSpaceOnUse">
<stop stop-opacity="0"/>
<stop offset="0.99"/>
</linearGradient>
<linearGradient id="paint7_linear_117_65" x1="164.448" y1="92.5831" x2="175.269" y2="93.0871" gradientUnits="userSpaceOnUse">
<stop stop-opacity="0"/>
<stop offset="0.99"/>
</linearGradient>
<linearGradient id="paint8_linear_117_65" x1="214.805" y1="92.7115" x2="203.983" y2="93.2154" gradientUnits="userSpaceOnUse">
<stop stop-opacity="0"/>
<stop offset="0.99"/>
</linearGradient>
<linearGradient id="paint9_linear_117_65" x1="153.276" y1="108.486" x2="136.169" y2="101.372" gradientUnits="userSpaceOnUse">
<stop stop-opacity="0"/>
<stop offset="0.99"/>
</linearGradient>
<linearGradient id="paint10_linear_117_65" x1="97.1531" y1="106.92" x2="106.96" y2="102.312" gradientUnits="userSpaceOnUse">
<stop stop-opacity="0"/>
<stop offset="0.99"/>
</linearGradient>
<linearGradient id="paint11_linear_117_65" x1="105.957" y1="100.188" x2="101.033" y2="80.2618" gradientUnits="userSpaceOnUse">
<stop stop-opacity="0"/>
<stop offset="0.6" stop-opacity="0.36"/>
<stop offset="0.99"/>
</linearGradient>
<linearGradient id="paint12_linear_117_65" x1="154.822" y1="72.3106" x2="136.325" y2="91.6469" gradientUnits="userSpaceOnUse">
<stop stop-opacity="0"/>
<stop offset="0.6" stop-opacity="0.36"/>
<stop offset="0.99"/>
</linearGradient>
<linearGradient id="paint13_linear_117_65" x1="190.597" y1="134.752" x2="178.026" y2="81.6963" gradientUnits="userSpaceOnUse">
<stop stop-opacity="0"/>
<stop offset="0.99"/>
</linearGradient>
</defs>
</svg>
