<svg width="635" height="640" viewBox="0 0 635 640" fill="none" xmlns="http://www.w3.org/2000/svg">
<path fill-rule="evenodd" clip-rule="evenodd" d="M333.544 0.501576C401.911 5.66305 450.391 63.8308 503.415 107.295C552.931 147.882 614.45 182.598 631.113 244.417C647.524 305.3 604.249 362.906 588.792 424.038C571.799 491.248 592.978 580.261 536.157 619.976C479.2 659.786 403.012 600.7 333.544 602.446C261.129 604.266 189.13 660.779 123.393 630.351C55.6608 598.999 13.9554 522.532 1.80382 448.892C-9.60471 379.754 35.848 317.947 61.0534 252.565C84.5667 191.573 95.9696 124.545 143.955 80.1567C195.537 32.4414 263.476 -4.78827 333.544 0.501576Z" fill="#53C3A1"/>
</svg>
