<svg width="200" height="200" viewBox="0 0 200 200" fill="none" xmlns="http://www.w3.org/2000/svg">
<path d="M112.478 189.659C112.478 189.659 110.527 148.551 115.92 139.179C121.313 129.807 136.309 124.066 145.489 114.068C156.504 102.059 159.12 91.8281 167.197 87.7922C174.219 84.296 177.73 89.2274 177.73 89.2274C177.73 89.2274 176.721 56.4373 178.178 52.7939C179.635 49.1506 186.336 41.0911 193.312 53.0515C200.288 65.012 200.311 102.893 195.607 125.649C190.903 148.404 166.015 162.07 164.019 167.799C162.023 173.527 162.665 189.659 162.665 189.659H112.478Z" fill="#FFC9B0"/>
<path d="M162.608 190.885H112.478C112.174 190.885 111.882 190.756 111.667 190.526C111.451 190.296 111.331 189.984 111.331 189.659C111.25 187.966 109.426 148.061 114.899 138.48C118.008 133.058 124.078 128.912 130.423 124.52C135.437 121.073 140.624 117.515 144.628 113.148C148.525 108.807 152.06 104.112 155.196 99.1147C158.89 93.4964 161.805 89.0557 166.669 86.6145C171.259 84.3573 174.506 85.3878 176.468 86.5409C176.25 78.2973 175.768 55.5295 177.088 52.1928C178.109 49.6535 181.046 45.7403 184.97 45.4213C188.298 45.1637 191.419 47.47 194.23 52.3032C201.459 64.6931 201.459 102.599 196.651 125.808C193.335 141.755 180.53 153.237 172.051 160.806C168.609 163.922 165.545 166.621 165.017 168.167C163.124 173.589 163.732 189.389 163.744 189.536C163.751 189.703 163.726 189.869 163.671 190.025C163.615 190.181 163.531 190.324 163.422 190.444C163.322 190.573 163.198 190.679 163.058 190.755C162.918 190.831 162.765 190.875 162.608 190.885V190.885ZM113.568 188.432H161.426C161.311 184.445 161.139 172.362 162.883 167.369C163.617 165.259 166.543 162.646 170.594 159.028C178.832 151.667 191.247 140.553 194.425 125.379C199.118 102.807 199.015 65.2696 192.302 53.7017C190.008 49.7148 187.564 47.7889 185.154 47.9852C182.159 48.2305 179.853 51.6653 179.199 53.2723C178.212 55.7258 178.453 76.5799 178.843 89.1783C178.85 89.4369 178.78 89.6911 178.643 89.9046C178.507 90.1181 178.311 90.2799 178.083 90.367C177.855 90.4541 177.607 90.462 177.375 90.3895C177.143 90.317 176.938 90.1679 176.79 89.9634C176.663 89.804 173.703 85.8907 167.61 88.9085C163.285 91.0552 160.519 95.2628 157.02 100.587C153.816 105.692 150.204 110.49 146.223 114.927C142.035 119.491 136.745 123.134 131.617 126.655C125.455 130.874 119.638 134.874 116.815 139.817C112.248 147.901 113.316 181.697 113.568 188.432V188.432Z" fill="#093F68"/>
<path d="M153.36 138.676C153.07 138.675 152.791 138.557 152.579 138.345C152.366 138.115 152.246 137.804 152.246 137.48C152.246 137.156 152.366 136.845 152.579 136.615C160.806 127.084 169.274 116.73 174.38 104.169C176.315 99.5554 177.071 94.4759 176.572 89.4482C176.545 89.2895 176.548 89.1268 176.581 88.9694C176.613 88.812 176.674 88.663 176.76 88.5308C176.847 88.3987 176.957 88.286 177.084 88.1992C177.211 88.1125 177.352 88.0534 177.501 88.0252C177.65 87.9971 177.803 88.0008 177.951 88.0363C178.099 88.0717 178.239 88.1381 178.363 88.2316C178.486 88.3251 178.591 88.4439 178.672 88.5812C178.753 88.7184 178.807 88.8713 178.832 89.0311C179.435 94.5369 178.622 100.114 176.48 105.162C171.167 118.08 162.562 128.605 154.209 138.284C154.1 138.409 153.969 138.508 153.823 138.576C153.677 138.643 153.519 138.678 153.36 138.676V138.676Z" fill="#093F68"/>
<path d="M109.414 162.07H172.992V198.773H109.414V162.07Z" fill="#53C3A1"/>
<path d="M172.992 200H109.414C109.11 200 108.818 199.871 108.603 199.641C108.388 199.411 108.267 199.099 108.267 198.773V162.07C108.267 161.745 108.388 161.433 108.603 161.203C108.818 160.973 109.11 160.843 109.414 160.843H172.992C173.296 160.843 173.588 160.973 173.803 161.203C174.018 161.433 174.139 161.745 174.139 162.07V198.773C174.139 199.099 174.018 199.411 173.803 199.641C173.588 199.871 173.296 200 172.992 200V200ZM110.562 197.547H171.844V163.297H110.562V197.547Z" fill="#093F68"/>
<path d="M87.5336 189.659C87.5336 189.659 89.4842 148.551 84.0914 139.179C78.6986 129.807 63.7021 124.066 54.523 114.068C43.508 102.059 40.8919 91.8281 32.8142 87.7922C25.7921 84.296 22.2811 89.2274 22.2811 89.2274C22.2811 89.2274 23.2908 56.4373 21.8336 52.7939C20.3764 49.1506 13.6756 41.0911 6.69946 53.0515C-0.276718 65.012 -0.299666 102.893 4.40466 125.649C9.10899 148.404 33.996 162.07 35.9925 167.799C37.989 173.527 37.3464 189.659 37.3464 189.659H87.5336Z" fill="#FFC9B0"/>
<path d="M87.5335 190.885H37.4038C37.2492 190.885 37.0964 190.851 36.9544 190.785C36.8124 190.72 36.6843 190.625 36.5776 190.505C36.4692 190.385 36.3847 190.243 36.3295 190.087C36.2742 189.931 36.2494 189.764 36.2564 189.597C36.2564 189.45 36.876 173.65 34.9828 168.228C34.455 166.731 31.4373 164.033 27.9492 160.868C19.47 153.299 6.66501 141.854 3.34903 125.869C-1.45856 102.709 -1.45856 64.7544 5.77004 52.3645C8.58116 47.5313 11.6791 45.2128 15.0295 45.4827C18.9536 45.8016 21.9139 49.7148 22.9121 52.2541C24.2317 55.5417 23.7498 78.3096 23.5317 86.6022C25.4938 85.3755 28.7868 84.4187 33.3305 86.6758C38.2069 89.1293 41.1213 93.5577 44.8045 99.1761C47.9395 104.173 51.4754 108.868 55.372 113.21C59.3764 117.577 64.5512 121.134 69.5768 124.581C75.9678 128.973 81.9916 133.168 85.101 138.541C90.5741 148.122 88.7498 188.027 88.6694 189.72C88.6548 190.033 88.5291 190.327 88.3179 190.544C88.1068 190.76 87.8262 190.883 87.5335 190.885V190.885ZM38.5856 188.432H86.4435C86.6959 181.697 87.763 147.95 83.1505 139.817C80.3279 134.91 74.5106 130.874 68.3491 126.655C63.2202 123.134 57.9307 119.49 53.7427 114.927C49.7619 110.49 46.1493 105.692 42.9457 100.587C39.4461 95.2628 36.6809 91.0552 32.3552 88.9085C26.3084 85.8907 23.3482 89.8039 23.176 89.9757C23.0263 90.179 22.8202 90.3264 22.5874 90.3969C22.3545 90.4674 22.1067 90.4574 21.8795 90.3682C21.6463 90.2786 21.4465 90.1107 21.31 89.8896C21.1735 89.6684 21.1076 89.406 21.1222 89.1415C21.5123 76.5799 21.7533 55.7135 20.7665 53.2355C20.1125 51.6162 17.8062 48.1937 14.8115 47.9484C12.402 47.7521 9.99246 49.678 7.66324 53.6649C0.916547 65.2696 0.847704 102.734 5.54056 125.342C8.6959 140.516 21.1337 151.643 29.372 158.991C33.4223 162.61 36.3482 165.222 37.0825 167.332C38.8724 172.374 38.7003 184.445 38.5856 188.432V188.432Z" fill="#093F68"/>
<path d="M46.6518 138.676C46.4917 138.676 46.3335 138.64 46.1872 138.57C46.041 138.5 45.91 138.399 45.8027 138.272C37.4497 128.593 28.8442 118.068 23.5318 105.15C21.4089 100.096 20.6155 94.519 21.237 89.0189C21.262 88.8591 21.3163 88.7061 21.3969 88.5689C21.4774 88.4317 21.5826 88.3129 21.7064 88.2193C21.8301 88.1258 21.97 88.0594 22.1179 88.024C22.2657 87.9886 22.4187 87.9848 22.568 88.013C22.7164 88.0411 22.8582 88.1002 22.9853 88.187C23.1123 88.2737 23.2222 88.3864 23.3085 88.5185C23.3948 88.6507 23.4559 88.7997 23.4883 88.9572C23.5207 89.1146 23.5238 89.2773 23.4974 89.436C22.9978 94.4637 23.7539 99.5431 25.6889 104.157C30.8522 116.718 39.32 127.072 47.4894 136.603C47.7031 136.833 47.8231 137.144 47.8231 137.468C47.8231 137.792 47.7031 138.103 47.4894 138.333C47.3785 138.447 47.2472 138.537 47.1033 138.596C46.9594 138.655 46.8059 138.682 46.6518 138.676V138.676Z" fill="#093F68"/>
<path d="M27.3181 162.07H90.8954V198.773H27.3181V162.07Z" fill="#53C3A1"/>
<path d="M90.8954 200H27.3181C27.0138 200 26.722 199.871 26.5068 199.641C26.2916 199.411 26.1707 199.099 26.1707 198.773V162.07C26.1707 161.745 26.2916 161.433 26.5068 161.203C26.722 160.973 27.0138 160.843 27.3181 160.843H90.8954C91.1997 160.843 91.4916 160.973 91.7067 161.203C91.9219 161.433 92.0428 161.745 92.0428 162.07V198.773C92.0428 199.099 91.9219 199.411 91.7067 199.641C91.4916 199.871 91.1997 200 90.8954 200V200ZM28.4655 197.547H89.748V163.297H28.4655V197.547Z" fill="#093F68"/>
<path d="M100.006 121.048C97.1831 118.252 94.4523 115.442 91.6297 112.768C83.7662 105.326 75.8836 97.9085 67.9819 90.5155C62.6502 85.6858 57.5638 80.5549 52.7445 75.1447C48.4129 70.3397 44.9162 64.7486 42.4179 58.6331C40.833 54.4533 39.7683 50.0692 39.2511 45.5931C38.7413 41.5858 38.557 37.5389 38.7003 33.4977C39.2511 19.4395 47.3402 7.54034 59.4452 3.27136C72.5256 -1.32883 83.9422 1.86063 93.8213 12.0178C96.0599 14.369 98.0142 17.0106 99.6386 19.8811L100.006 20.4822L100.453 19.7339C103.988 13.4969 109.046 8.40773 115.083 5.0133C120.377 2.06716 126.346 0.790845 132.293 1.33315C138.935 1.82474 145.252 4.5906 150.308 9.22094C155.932 14.279 159.663 21.334 160.818 29.0937C161.366 33.1193 161.463 37.2005 161.105 41.2505C160.875 45.5888 160.186 49.8852 159.051 54.0574C157.225 60.4149 154.234 66.3199 150.25 71.4277C146.123 76.6823 141.599 81.5648 136.722 86.0257C129.505 92.834 122.208 99.5196 115.014 106.365C110.091 111.038 105.284 115.872 100.43 120.619L100.006 121.048Z" fill="#F56132"/>
<path d="M100.006 122.275C99.7159 122.274 99.4371 122.156 99.2255 121.944L96.5636 119.294C94.7048 117.43 92.7772 115.504 90.8266 113.688C84.3094 107.505 77.7769 101.372 71.229 95.2874L67.2361 91.411C61.8781 86.5476 56.7614 81.3884 51.9069 75.9543C47.4827 71.0492 43.9223 65.3311 41.3967 59.0747C39.7675 54.7987 38.6756 50.3108 38.1496 45.728C37.6345 41.6637 37.4464 37.5596 37.5874 33.4608C38.1611 18.8261 46.6059 6.47307 59.124 2.11823C72.3305 -2.5433 84.2749 0.49896 94.6245 11.1469C96.6612 13.2781 98.4664 15.6484 100.006 18.2128C103.599 12.1691 108.622 7.24747 114.566 3.94603C120.044 0.921993 126.208 -0.387641 132.351 0.167751C139.234 0.642205 145.791 3.47231 151.053 8.23954C156.882 13.4901 160.754 20.8032 161.965 28.8484C162.525 32.9674 162.625 37.143 162.264 41.2873C162.023 45.7165 161.319 50.1029 160.164 54.3641C158.305 60.884 155.238 66.9373 151.145 72.1638C146.974 77.4574 142.407 82.3804 137.491 86.8844C134.21 89.9757 130.917 93.0589 127.612 96.1338C123.665 99.814 119.707 103.494 115.782 107.174C112.398 110.388 109.001 113.737 105.72 116.988C104.217 118.472 102.725 119.957 101.211 121.429L100.775 121.858C100.579 122.099 100.303 122.248 100.006 122.275V122.275ZM70.7013 2.46171C67.0078 2.49776 63.3435 3.16451 59.8469 4.43672C48.2467 8.52169 40.41 19.9424 39.8822 33.5467C39.7427 37.5182 39.9231 41.4952 40.4215 45.4336C40.9247 49.8015 41.9664 54.079 43.5194 58.1547C45.9397 64.1448 49.3526 69.618 53.5936 74.3105C58.3862 79.6757 63.4378 84.7695 68.7277 89.5709L72.7895 93.3737C79.3297 99.5237 85.866 105.682 92.3985 111.848C94.3491 113.7 96.2767 115.639 98.1355 117.503L100.006 119.38L104.148 115.283C107.441 112.044 110.837 108.683 114.245 105.469C118.181 101.789 122.139 98.1088 126.098 94.3551C129.394 91.2883 132.684 88.2092 135.965 85.1179C140.782 80.6863 145.257 75.8455 149.344 70.6426C153.243 65.6745 156.166 59.9169 157.938 53.7139C159.065 49.6114 159.751 45.3845 159.98 41.1156C160.332 37.1642 160.243 33.1822 159.716 29.2532C158.591 21.7631 154.993 14.952 149.573 10.0551C144.656 5.64027 138.542 3.03012 132.133 2.60892C126.414 2.09353 120.675 3.31385 115.576 6.1296C109.712 9.40121 104.805 14.3376 101.394 20.3963L100.935 21.1446C100.831 21.3174 100.689 21.4595 100.521 21.5581C100.352 21.6567 100.163 21.7086 99.9713 21.7089C99.7822 21.6944 99.5982 21.6365 99.4319 21.5391C99.2655 21.4417 99.1208 21.3072 99.0075 21.1446L98.6289 20.519C97.0649 17.7414 95.1841 15.1825 93.0296 12.9011C86.237 5.95785 78.8019 2.46171 70.7013 2.46171V2.46171Z" fill="#093F68"/>
<path d="M114.027 83.7072H113.947C113.706 83.6894 113.476 83.591 113.291 83.4258C113.106 83.2606 112.974 83.0371 112.914 82.7872L101.612 33.7553L85.9042 73.0102C85.8203 73.2206 85.6829 73.4017 85.5077 73.533C85.3326 73.6643 85.1266 73.7407 84.9129 73.7535C84.6993 73.7662 84.4866 73.7149 84.2989 73.6052C84.1111 73.4956 83.9558 73.332 83.8504 73.1329L74.4532 55.4436H44.357C44.0527 55.4436 43.7608 55.3144 43.5457 55.0843C43.3305 54.8543 43.2096 54.5423 43.2096 54.2169C43.2096 53.8916 43.3305 53.5796 43.5457 53.3495C43.7608 53.1194 44.0527 52.9902 44.357 52.9902H75.1187C75.322 52.9906 75.5216 53.0487 75.697 53.1586C75.8724 53.2686 76.0173 53.4263 76.1169 53.6158L84.7109 69.7717L100.855 29.3759C100.95 29.1403 101.112 28.9426 101.318 28.8106C101.524 28.6785 101.763 28.6188 102.002 28.6399C102.241 28.6601 102.468 28.7597 102.651 28.9247C102.834 29.0897 102.964 29.3118 103.023 29.5599L114.291 78.4078L127.107 43.9738C127.192 43.7456 127.339 43.5499 127.53 43.4121C127.72 43.2743 127.945 43.2008 128.174 43.201H157.376C157.68 43.201 157.972 43.3302 158.187 43.5603C158.402 43.7904 158.523 44.1024 158.523 44.4277C158.523 44.7531 158.402 45.0651 158.187 45.2951C157.972 45.5252 157.68 45.6544 157.376 45.6544H128.955L115.094 82.873C115.018 83.1127 114.875 83.3216 114.684 83.4709C114.493 83.6203 114.264 83.7028 114.027 83.7072V83.7072Z" fill="white"/>
</svg>
