<svg width="200" height="200" viewBox="0 0 200 200" fill="none" xmlns="http://www.w3.org/2000/svg">
<path d="M193.886 93.1016H6.11407C3.00743 93.1016 0.489075 95.6199 0.489075 98.7266V193.984C0.489075 197.091 3.00743 199.609 6.11407 199.609H193.886C196.993 199.609 199.511 197.091 199.511 193.984V98.7266C199.511 95.6199 196.993 93.1016 193.886 93.1016Z" fill="#FFC9B0"/>
<path d="M171.942 135.354H165.063C164.317 135.354 163.602 135.057 163.074 134.53C162.547 134.002 162.25 133.287 162.25 132.541V114.249C162.25 113.503 162.547 112.788 163.074 112.26C163.602 111.733 164.317 111.436 165.063 111.436H171.942C172.688 111.436 173.403 111.733 173.931 112.26C174.458 112.788 174.755 113.503 174.755 114.249V132.541C174.755 133.287 174.458 134.002 173.931 134.53C173.403 135.057 172.688 135.354 171.942 135.354ZM192.78 132.541V114.249C192.78 113.503 192.484 112.788 191.956 112.26C191.429 111.733 190.714 111.436 189.968 111.436H183.088C182.342 111.436 181.627 111.733 181.1 112.26C180.572 112.788 180.276 113.503 180.276 114.249V132.541C180.276 133.287 180.572 134.002 181.1 134.53C181.627 135.057 182.342 135.354 183.088 135.354H189.968C190.714 135.354 191.429 135.057 191.956 134.53C192.484 134.002 192.78 133.287 192.78 132.541ZM20.8484 132.541V114.249C20.8484 113.503 20.5521 112.788 20.0247 112.26C19.4972 111.733 18.7819 111.436 18.0359 111.436H11.1566C10.4107 111.436 9.69536 111.733 9.16791 112.26C8.64046 112.788 8.34415 113.503 8.34415 114.249V132.541C8.34415 133.287 8.64046 134.002 9.16791 134.53C9.69536 135.057 10.4107 135.354 11.1566 135.354H18.0359C18.4053 135.354 18.771 135.281 19.1122 135.139C19.4535 134.998 19.7635 134.791 20.0247 134.53C20.2858 134.269 20.493 133.959 20.6344 133.617C20.7757 133.276 20.8484 132.91 20.8484 132.541ZM38.8738 132.541V114.249C38.8738 113.503 38.5775 112.788 38.0501 112.26C37.5226 111.733 36.8073 111.436 36.0613 111.436H29.1824C28.4365 111.436 27.7211 111.733 27.1937 112.26C26.6662 112.788 26.3699 113.503 26.3699 114.249V132.541C26.3699 133.287 26.6662 134.002 27.1937 134.53C27.7211 135.057 28.4365 135.354 29.1824 135.354H36.0617C36.8076 135.353 37.5228 135.057 38.0502 134.53C38.5776 134.002 38.8738 133.287 38.8738 132.541ZM20.8484 154.298V148.188C20.8484 147.819 20.7757 147.453 20.6344 147.112C20.493 146.771 20.2858 146.461 20.0247 146.2C19.7635 145.938 19.4535 145.731 19.1122 145.59C18.771 145.449 18.4053 145.376 18.0359 145.376H11.1566C10.4107 145.376 9.69536 145.672 9.16791 146.2C8.64046 146.727 8.34415 147.442 8.34415 148.188V154.298C8.34415 155.044 8.64046 155.76 9.16791 156.287C9.69536 156.815 10.4107 157.111 11.1566 157.111H18.0359C18.4053 157.111 18.771 157.038 19.1122 156.897C19.4535 156.756 19.7635 156.548 20.0247 156.287C20.2858 156.026 20.493 155.716 20.6344 155.375C20.7757 155.034 20.8484 154.668 20.8484 154.298ZM38.8738 154.298V148.188C38.8738 147.442 38.5775 146.727 38.0501 146.2C37.5226 145.672 36.8073 145.376 36.0613 145.376H29.1824C28.4365 145.376 27.7211 145.672 27.1937 146.2C26.6662 146.727 26.3699 147.442 26.3699 148.188V154.298C26.3699 155.044 26.6662 155.76 27.1937 156.287C27.7211 156.815 28.4365 157.111 29.1824 157.111H36.0617C36.8076 157.111 37.5228 156.814 38.0502 156.287C38.5776 155.76 38.8738 155.044 38.8738 154.298ZM20.8484 175.406V169.296C20.8484 168.926 20.7757 168.561 20.6344 168.219C20.493 167.878 20.2858 167.568 20.0247 167.307C19.7635 167.046 19.4535 166.839 19.1122 166.697C18.771 166.556 18.4053 166.483 18.0359 166.483H11.1566C10.4107 166.483 9.69536 166.78 9.16791 167.307C8.64046 167.834 8.34415 168.55 8.34415 169.296V175.406C8.34415 176.152 8.64046 176.867 9.16791 177.395C9.69536 177.922 10.4107 178.218 11.1566 178.218H18.0359C18.4053 178.218 18.771 178.146 19.1122 178.004C19.4535 177.863 19.7635 177.656 20.0247 177.395C20.2858 177.133 20.493 176.823 20.6344 176.482C20.7757 176.141 20.8484 175.775 20.8484 175.406ZM38.8738 175.406V169.296C38.8738 168.55 38.5775 167.834 38.0501 167.307C37.5226 166.78 36.8073 166.483 36.0613 166.483H29.1824C28.4365 166.483 27.7211 166.78 27.1937 167.307C26.6662 167.834 26.3699 168.55 26.3699 169.296V175.406C26.3699 176.152 26.6662 176.867 27.1937 177.395C27.7211 177.922 28.4365 178.218 29.1824 178.218H36.0617C36.8076 178.218 37.5228 177.922 38.0502 177.394C38.5776 176.867 38.8738 176.152 38.8738 175.406ZM174.755 154.298V148.188C174.755 147.442 174.458 146.727 173.931 146.2C173.403 145.672 172.688 145.376 171.942 145.376H165.063C164.317 145.376 163.602 145.672 163.074 146.2C162.547 146.727 162.25 147.442 162.25 148.188V154.298C162.25 155.044 162.547 155.76 163.074 156.287C163.602 156.815 164.317 157.111 165.063 157.111H171.942C172.688 157.111 173.403 156.815 173.931 156.287C174.458 155.76 174.755 155.044 174.755 154.298ZM192.78 154.298V148.188C192.78 147.442 192.484 146.727 191.956 146.2C191.429 145.672 190.714 145.376 189.968 145.376H183.088C182.342 145.376 181.627 145.672 181.1 146.2C180.572 146.727 180.276 147.442 180.276 148.188V154.298C180.276 155.044 180.572 155.76 181.1 156.287C181.627 156.815 182.342 157.111 183.088 157.111H189.968C190.714 157.111 191.429 156.815 191.956 156.287C192.484 155.76 192.78 155.044 192.78 154.298ZM174.755 175.406V169.296C174.755 168.55 174.458 167.834 173.931 167.307C173.403 166.78 172.688 166.483 171.942 166.483H165.063C164.317 166.483 163.602 166.78 163.074 167.307C162.547 167.834 162.25 168.55 162.25 169.296V175.406C162.25 176.152 162.547 176.867 163.074 177.395C163.602 177.922 164.317 178.218 165.063 178.218H171.942C172.688 178.218 173.403 177.922 173.931 177.395C174.458 176.867 174.755 176.152 174.755 175.406ZM192.78 175.406V169.296C192.78 168.55 192.484 167.834 191.956 167.307C191.429 166.78 190.714 166.483 189.968 166.483H183.088C182.342 166.483 181.627 166.78 181.1 167.307C180.572 167.834 180.276 168.55 180.276 169.296V175.406C180.276 176.152 180.572 176.867 181.1 177.395C181.627 177.922 182.342 178.218 183.088 178.218H189.968C190.714 178.218 191.429 177.922 191.956 177.395C192.484 176.867 192.78 176.152 192.78 175.406Z" fill="#404040"/>
<path d="M151.405 27.8398H51.284C49.6672 27.8398 48.3563 29.7289 48.3563 32.059V195.39C48.3563 197.72 49.6672 199.609 51.284 199.609H151.405C153.021 199.609 154.332 197.72 154.332 195.39V32.0594C154.332 29.7289 153.022 27.8398 151.405 27.8398Z" fill="#53C3A1"/>
<path d="M68.0976 123.375H59.507C58.7611 123.375 58.0457 123.079 57.5183 122.551C56.9908 122.024 56.6945 121.308 56.6945 120.563V98.9969C56.6945 98.251 56.9908 97.5356 57.5183 97.0082C58.0457 96.4807 58.7611 96.1844 59.507 96.1844H68.0976C68.8436 96.1844 69.5589 96.4807 70.0864 97.0082C70.6138 97.5356 70.9101 98.251 70.9101 98.9969V120.563C70.9101 121.308 70.6138 122.024 70.0864 122.551C69.5589 123.079 68.8436 123.375 68.0976 123.375ZM91.4023 120.563V98.9969C91.4023 98.251 91.106 97.5356 90.5786 97.0082C90.0511 96.4807 89.3358 96.1844 88.5898 96.1844H79.9992C79.2533 96.1844 78.5379 96.4807 78.0105 97.0082C77.483 97.5356 77.1867 98.251 77.1867 98.9969V120.563C77.1867 121.308 77.483 122.024 78.0105 122.551C78.5379 123.079 79.2533 123.375 79.9992 123.375H88.5898C89.3358 123.375 90.0511 123.079 90.5786 122.551C91.106 122.024 91.4023 121.308 91.4023 120.563ZM125.005 120.563V98.9969C125.005 98.251 124.708 97.5356 124.181 97.0082C123.653 96.4807 122.938 96.1844 122.192 96.1844H113.602C112.856 96.1844 112.141 96.4807 111.613 97.0082C111.086 97.5356 110.789 98.251 110.789 98.9969V120.563C110.789 121.308 111.086 122.024 111.613 122.551C112.141 123.079 112.856 123.375 113.602 123.375H122.192C122.938 123.375 123.653 123.079 124.181 122.551C124.708 122.024 125.005 121.308 125.005 120.563ZM145.497 120.563V98.9969C145.497 98.251 145.201 97.5356 144.673 97.0082C144.146 96.4807 143.431 96.1844 142.685 96.1844H134.094C133.348 96.1844 132.633 96.4807 132.105 97.0082C131.578 97.5356 131.282 98.251 131.282 98.9969V120.563C131.282 121.308 131.578 122.024 132.105 122.551C132.633 123.079 133.348 123.375 134.094 123.375H142.685C143.431 123.375 144.146 123.079 144.673 122.551C145.201 122.024 145.497 121.308 145.497 120.563ZM70.9101 143.527V137.417C70.9101 136.671 70.6138 135.956 70.0864 135.428C69.5589 134.901 68.8436 134.604 68.0976 134.604H59.507C58.7611 134.604 58.0457 134.901 57.5183 135.428C56.9908 135.956 56.6945 136.671 56.6945 137.417V143.527C56.6945 144.273 56.9908 144.988 57.5183 145.516C58.0457 146.043 58.7611 146.339 59.507 146.339H68.0976C68.8436 146.339 69.5589 146.043 70.0864 145.516C70.6138 144.988 70.9101 144.273 70.9101 143.527ZM91.4023 143.527V137.417C91.4023 136.671 91.106 135.956 90.5786 135.428C90.0511 134.901 89.3358 134.604 88.5898 134.604H79.9992C79.2533 134.604 78.5379 134.901 78.0105 135.428C77.483 135.956 77.1867 136.671 77.1867 137.417V143.527C77.1867 144.273 77.483 144.988 78.0105 145.516C78.5379 146.043 79.2533 146.339 79.9992 146.339H88.5898C89.3358 146.339 90.0511 146.043 90.5786 145.516C91.106 144.988 91.4023 144.273 91.4023 143.527ZM125.005 143.527V137.417C125.005 136.671 124.708 135.956 124.181 135.428C123.653 134.901 122.938 134.604 122.192 134.604H113.602C112.856 134.604 112.141 134.901 111.613 135.428C111.086 135.956 110.789 136.671 110.789 137.417V143.527C110.789 144.273 111.086 144.988 111.613 145.516C112.141 146.043 112.856 146.339 113.602 146.339H122.192C122.938 146.339 123.653 146.043 124.181 145.516C124.708 144.988 125.005 144.273 125.005 143.527ZM145.497 143.527V137.417C145.497 136.671 145.201 135.956 144.673 135.428C144.146 134.901 143.431 134.604 142.685 134.604H134.094C133.348 134.604 132.633 134.901 132.105 135.428C131.578 135.956 131.282 136.671 131.282 137.417V143.527C131.282 144.273 131.578 144.988 132.105 145.516C132.633 146.043 133.348 146.339 134.094 146.339H142.685C143.431 146.339 144.146 146.043 144.673 145.516C145.201 144.988 145.497 144.273 145.497 143.527ZM70.9101 166.166V160.056C70.9101 159.31 70.6138 158.595 70.0864 158.068C69.5589 157.54 68.8436 157.244 68.0976 157.244H59.507C58.7611 157.244 58.0457 157.54 57.5183 158.068C56.9908 158.595 56.6945 159.31 56.6945 160.056V166.166C56.6945 166.912 56.9908 167.628 57.5183 168.155C58.0457 168.683 58.7611 168.979 59.507 168.979H68.0976C68.8436 168.979 69.5589 168.683 70.0864 168.155C70.6138 167.628 70.9101 166.912 70.9101 166.166ZM145.497 166.166V160.056C145.497 159.31 145.201 158.595 144.673 158.068C144.146 157.54 143.431 157.244 142.685 157.244H134.094C133.348 157.244 132.633 157.54 132.105 158.068C131.578 158.595 131.282 159.31 131.282 160.056V166.166C131.282 166.912 131.578 167.628 132.105 168.155C132.633 168.683 133.348 168.979 134.094 168.979H142.685C143.431 168.979 144.146 168.683 144.673 168.155C145.201 167.628 145.497 166.912 145.497 166.166ZM70.9101 186.687V180.577C70.9101 179.831 70.6138 179.116 70.0864 178.588C69.5589 178.061 68.8436 177.764 68.0976 177.764H59.507C58.7611 177.764 58.0457 178.061 57.5183 178.588C56.9908 179.116 56.6945 179.831 56.6945 180.577V186.687C56.6945 187.433 56.9908 188.148 57.5183 188.676C58.0457 189.203 58.7611 189.5 59.507 189.5H68.0976C68.8436 189.5 69.5589 189.203 70.0864 188.676C70.6138 188.148 70.9101 187.433 70.9101 186.687ZM145.497 186.687V180.577C145.497 179.831 145.201 179.116 144.673 178.588C144.146 178.061 143.431 177.764 142.685 177.764H134.094C133.348 177.764 132.633 178.061 132.105 178.588C131.578 179.116 131.282 179.831 131.282 180.577V186.687C131.282 187.433 131.578 188.148 132.105 188.676C132.633 189.203 133.348 189.5 134.094 189.5H142.685C143.431 189.5 144.146 189.203 144.673 188.676C145.201 188.148 145.497 187.433 145.497 186.687Z" fill="#FFC9B0"/>
<path d="M80.9605 158.011H121.729V199.609H80.9605V158.011Z" fill="#2B3B47"/>
<path d="M101.345 87.0844C113.722 87.0844 123.756 77.0505 123.756 64.673C123.756 52.2956 113.722 42.2617 101.345 42.2617C88.9671 42.2617 78.9332 52.2956 78.9332 64.673C78.9332 77.0505 88.9671 87.0844 101.345 87.0844Z" fill="#F56132"/>
<path d="M101.345 81.9441C110.883 81.9441 118.616 74.2116 118.616 64.673C118.616 55.1345 110.883 47.4019 101.345 47.4019C91.806 47.4019 84.0734 55.1345 84.0734 64.673C84.0734 74.2116 91.806 81.9441 101.345 81.9441Z" fill="#F4F3EF"/>
<path d="M124.898 155.743V160.28C124.898 161.026 124.602 161.742 124.075 162.269C123.547 162.797 122.832 163.093 122.086 163.093H102.587V199.537H100.102V163.093H80.6031C79.8572 163.093 79.1418 162.797 78.6144 162.269C78.0869 161.742 77.7906 161.026 77.7906 160.28V155.743C77.7906 154.997 78.0869 154.281 78.6144 153.754C79.1418 153.226 79.8572 152.93 80.6031 152.93H122.086C122.832 152.93 123.547 153.226 124.075 153.754C124.602 154.281 124.898 154.997 124.898 155.743ZM156.991 32.7387V27.7508C156.991 27.0049 156.694 26.2895 156.167 25.762C155.639 25.2346 154.924 24.9383 154.178 24.9383H48.5109C47.765 24.9383 47.0496 25.2346 46.5222 25.762C45.9947 26.2895 45.6984 27.0049 45.6984 27.7508V32.7387C45.6984 33.4846 45.9947 34.2 46.5222 34.7274C47.0496 35.2549 47.765 35.5512 48.5109 35.5512H154.178C154.924 35.5512 155.639 35.2549 156.167 34.7274C156.694 34.2 156.991 33.4846 156.991 32.7387ZM114.955 66.3242C114.955 65.8246 114.757 65.3454 114.403 64.992C114.05 64.6387 113.571 64.4402 113.071 64.4402H102.927V53.5125C102.927 53.0128 102.728 52.5336 102.375 52.1803C102.022 51.827 101.543 51.6285 101.043 51.6285C100.543 51.6285 100.064 51.827 99.7108 52.1803C99.3575 52.5336 99.159 53.0128 99.159 53.5125V66.3242C99.159 66.8239 99.3575 67.3031 99.7108 67.6564C100.064 68.0097 100.543 68.2082 101.043 68.2082H113.071C113.571 68.2082 114.05 68.0097 114.403 67.6564C114.757 67.3031 114.955 66.8239 114.955 66.3242Z" fill="#597B91"/>
</svg>
